<?xml version="1.0" encoding="UTF-8"?>
<svg width="1430px" height="534px" viewBox="0 0 1430 534" version="1.1" xmlns="http://www.w3.org/2000/svg" xmlns:xlink="http://www.w3.org/1999/xlink">
    <!-- Generator: Sketch 51.1 (57501) - http://www.bohemiancoding.com/sketch -->
    <title>Group</title>
    <desc>Created with Sketch.</desc>
    <defs>
        <linearGradient x1="50%" y1="0%" x2="50%" y2="98.6452312%" id="linearGradient-1">
            <stop stop-color="#6F6F6F" offset="0%"></stop>
            <stop stop-color="#2F2F2F" offset="100%"></stop>
        </linearGradient>
    </defs>
    <g id="lp" stroke="none" stroke-width="1" fill="none" fill-rule="evenodd" stroke-dasharray="0.75,15" stroke-linecap="round" stroke-linejoin="round">
        <g id="Display_2_desktop_1440--Copy-4" transform="translate(-6.000000, 0.000000)" stroke="url(#linearGradient-1)" stroke-width="1.5">
            <g id="Group" transform="translate(-4747.000000, -128.000000)">
                <path d="M4459.83689,-1636.81261 C4324.95915,-1428.44135 4257.52027,-1238.95523 4257.52027,-1068.35425 C4257.52027,-812.452776 4409.37448,-555.392257 4409.37448,-309.641262 C4409.37448,-63.8902662 4257.52027,44.4619236 4257.52027,243.35811 C4257.52027,442.254297 4329.72232,466.251343 4344.49921,939.707397 C4358.89419,1400.92704 4225.08232,1363.65743 4225.08232,1704.66541 C4225.08232,2019.99581 4509.13594,2461.5594 4257.52027,2823.53926" id="Line-2-Copy-10" transform="translate(4342.459602, 593.363324) rotate(90.000000) translate(-4342.459602, -593.363324) "></path>
                <path d="M4459.83689,-1680.32092 C4324.95915,-1471.94966 4257.52027,-1282.46354 4257.52027,-1111.86256 C4257.52027,-855.961085 4409.37448,-598.900566 4409.37448,-353.149571 C4409.37448,-107.398576 4257.52027,0.953614162 4257.52027,199.849801 C4257.52027,398.745987 4329.72232,422.743034 4344.49921,896.199088 C4358.89419,1357.41873 4225.08232,1320.14912 4225.08232,1661.1571 C4225.08232,1976.4875 4509.13594,2418.05109 4257.52027,2780.03095" id="Line-2-Copy-11" opacity="0.9" transform="translate(4342.459602, 549.855014) rotate(90.000000) translate(-4342.459602, -549.855014) "></path>
                <path d="M4459.83689,-1724.57937 C4324.95915,-1516.20811 4257.52027,-1326.72199 4257.52027,-1156.12101 C4257.52027,-900.219538 4409.37448,-643.159019 4409.37448,-397.408024 C4409.37448,-151.657028 4257.52027,-43.3048386 4257.52027,155.591348 C4257.52027,354.487534 4329.72232,378.484581 4344.49921,851.940635 C4358.89419,1313.16027 4225.08232,1275.89067 4225.08232,1616.89865 C4225.08232,1932.22905 4509.13594,2373.79264 4257.52027,2735.77249" id="Line-2-Copy-12" opacity="0.7" transform="translate(4342.459602, 505.596562) rotate(90.000000) translate(-4342.459602, -505.596562) "></path>
                <path d="M4459.83689,-1767.33754 C4324.95915,-1558.96628 4257.52027,-1369.48015 4257.52027,-1198.87917 C4257.52027,-942.977704 4409.37448,-685.917185 4409.37448,-440.16619 C4409.37448,-194.415195 4257.52027,-86.0630047 4257.52027,112.833182 C4257.52027,311.729368 4329.72232,335.726415 4344.49921,809.182469 C4358.89419,1270.40211 4225.08232,1233.1325 4225.08232,1574.14048 C4225.08232,1889.47089 4509.13594,2331.03447 4257.52027,2693.01433" id="Line-2-Copy-14" opacity="0.5" transform="translate(4342.459602, 462.838395) rotate(90.000000) translate(-4342.459602, -462.838395) "></path>
                <path d="M4459.83689,-1811.59599 C4324.95915,-1603.22473 4257.52027,-1413.73861 4257.52027,-1243.13763 C4257.52027,-987.236157 4409.37448,-730.175638 4409.37448,-484.424643 C4409.37448,-238.673647 4257.52027,-130.321457 4257.52027,68.574729 C4257.52027,267.470916 4329.72232,291.467962 4344.49921,764.924016 C4358.89419,1226.14366 4225.08232,1188.87405 4225.08232,1529.88203 C4225.08232,1845.21243 4509.13594,2286.77602 4257.52027,2648.75587" id="Line-2-Copy-15" opacity="0.4" transform="translate(4342.459602, 418.579943) rotate(90.000000) translate(-4342.459602, -418.579943) "></path>
                <path d="M4459.83689,-1855.85444 C4324.95915,-1647.48318 4257.52027,-1457.99706 4257.52027,-1287.39608 C4257.52027,-1031.49461 4409.37448,-774.434091 4409.37448,-528.683095 C4409.37448,-282.9321 4257.52027,-174.57991 4257.52027,24.3162763 C4257.52027,223.212463 4329.72232,247.209509 4344.49921,720.665563 C4358.89419,1181.8852 4225.08232,1144.6156 4225.08232,1485.62358 C4225.08232,1800.95398 4509.13594,2242.51756 4257.52027,2604.49742" id="Line-2-Copy-16" opacity="0.3" transform="translate(4342.459602, 374.321490) rotate(90.000000) translate(-4342.459602, -374.321490) "></path>
                <path d="M4459.83689,-1898.61261 C4324.95915,-1690.24135 4257.52027,-1500.75523 4257.52027,-1330.15425 C4257.52027,-1074.25278 4409.37448,-817.192257 4409.37448,-571.441262 C4409.37448,-325.690266 4257.52027,-217.338076 4257.52027,-18.4418899 C4257.52027,180.454297 4329.72232,204.451343 4344.49921,677.907397 C4358.89419,1139.12704 4225.08232,1101.85743 4225.08232,1442.86541 C4225.08232,1758.19581 4509.13594,2199.7594 4257.52027,2561.73926" id="Line-2-Copy-17" opacity="0.25" transform="translate(4342.459602, 331.563324) rotate(90.000000) translate(-4342.459602, -331.563324) "></path>
                <path d="M4459.83689,-1942.87106 C4324.95915,-1734.4998 4257.52027,-1545.01368 4257.52027,-1374.4127 C4257.52027,-1118.51123 4409.37448,-861.45071 4409.37448,-615.699714 C4409.37448,-369.948719 4257.52027,-261.596529 4257.52027,-62.7003426 C4257.52027,136.195844 4329.72232,160.19289 4344.49921,633.648944 C4358.89419,1094.86858 4225.08232,1057.59898 4225.08232,1398.60696 C4225.08232,1713.93736 4509.13594,2155.50095 4257.52027,2517.4808" id="Line-2-Copy-18" opacity="0.2" transform="translate(4342.459602, 287.304871) rotate(90.000000) translate(-4342.459602, -287.304871) "></path>
                <path d="M4459.83689,-1986.37937 C4324.95915,-1778.00811 4257.52027,-1588.52199 4257.52027,-1417.92101 C4257.52027,-1162.01954 4409.37448,-904.959019 4409.37448,-659.208024 C4409.37448,-413.457028 4257.52027,-305.104839 4257.52027,-106.208652 C4257.52027,92.6875345 4329.72232,116.684581 4344.49921,590.140635 C4358.89419,1051.36027 4225.08232,1014.09067 4225.08232,1355.09865 C4225.08232,1670.42905 4509.13594,2111.99264 4257.52027,2473.97249" id="Line-2-Copy-19" opacity="0.15" transform="translate(4342.459602, 243.796562) rotate(90.000000) translate(-4342.459602, -243.796562) "></path>
                <path d="M4459.83689,-2029.88768 C4324.95915,-1821.51642 4257.52027,-1632.0303 4257.52027,-1461.42932 C4257.52027,-1205.52785 4409.37448,-948.467328 4409.37448,-702.716333 C4409.37448,-456.965338 4257.52027,-348.613148 4257.52027,-149.716961 C4257.52027,49.179225 4329.72232,73.1762715 4344.49921,546.632325 C4358.89419,1007.85196 4225.08232,970.58236 4225.08232,1311.59034 C4225.08232,1626.92074 4509.13594,2068.48433 4257.52027,2430.46418" id="Line-2-Copy-20" opacity="0.1" transform="translate(4342.459602, 200.288252) rotate(90.000000) translate(-4342.459602, -200.288252) "></path>
            </g>
        </g>
    </g>
</svg>